<svg xmlns="http://www.w3.org/2000/svg" viewBox="0 0 351.5 110.6">
  <style>
    .st0{fill-rule:evenodd;clip-rule:evenodd;fill:#008BCC;} .st1{fill:#008BCC;} .st2{fill:#B63E97;} .st3{fill-rule:evenodd;clip-rule:evenodd;fill:#05A7F2;} .st4{fill-rule:evenodd;clip-rule:evenodd;fill:#FFFFFF;} .st5{fill-rule:evenodd;clip-rule:evenodd;fill:#B63E97;} .st6{fill-rule:evenodd;clip-rule:evenodd;fill:#CCCCCC;} .st7{fill-rule:evenodd;clip-rule:evenodd;fill:#F0CEAF;}
  </style>
  <g>
    <path d="M149.5 28.8c1.4 0 2.5 1.1 2.5 2.5s-1.1 2.5-2.5 2.5-2.5-1.1-2.5-2.5c0-1.3 1.1-2.5 2.5-2.5zm8.3 0c1.4 0 2.5 1.1 2.5 2.5s-1.1 2.5-2.5 2.5-2.5-1.1-2.5-2.5c0-1.3 1.1-2.5 2.5-2.5z" class="st0"/>
    <path d="M102.8 70.2v6.2l6.2-6.2h.1v8.4H108v-6.2l-6.1 6.2h-.1v-8.4h1zm128.5 2.5c.8 0 1.4.6 1.4 1.4 0 .8-.6 1.4-1.4 1.4-.8 0-1.4-.6-1.4-1.4-.1-.7.6-1.4 1.4-1.4zm24.6-2.5h.3l2.8 8.4h-1l-2.1-6.2-3.2 6.2h-.2l-3.2-6.2-2.1 6.2H246l2.9-8.4h.3l3.4 6.6 3.3-6.6zm19.8 0v8.4h-1.1v-1.4c-.5.6-1 1-1.5 1.2-.6.3-1.2.4-1.9.4-1.2 0-2.2-.4-3-1.3-.8-.9-1.3-1.9-1.3-3.1 0-1.2.4-2.2 1.3-3.1.8-.9 1.9-1.3 3.1-1.3.7 0 1.3.1 1.9.4.6.3 1 .7 1.5 1.3v-1.5h1zm-4.4.9c-.6 0-1.2.1-1.7.4-.5.3-.9.7-1.2 1.3-.3.5-.5 1.1-.5 1.7 0 .6.2 1.2.5 1.7s.7 1 1.2 1.3c.5.3 1.1.5 1.6.5.6 0 1.2-.1 1.7-.4.5-.3.9-.7 1.2-1.2.3-.5.4-1.1.4-1.7 0-1-.3-1.8-1-2.4-.4-.9-1.2-1.2-2.2-1.2zm14.4.1v7.5h-1.1v-8.4h4.2v1h-3.1v-.1zm19.6-1v8.4h-1.1v-1.4c-.5.6-1 1-1.5 1.2-.6.3-1.2.4-1.8.4-1.2 0-2.2-.4-3-1.3-.8-.9-1.3-1.9-1.3-3.1 0-1.2.4-2.2 1.3-3.1.8-.9 1.9-1.3 3.1-1.3.7 0 1.3.1 1.9.4.6.3 1 .7 1.5 1.3v-1.5h.9zm-4.3.9c-.6 0-1.2.1-1.7.4-.5.3-.9.7-1.2 1.3-.3.5-.5 1.1-.5 1.7 0 .6.2 1.2.5 1.7s.7 1 1.2 1.3c.5.3 1.1.5 1.6.5.6 0 1.2-.1 1.7-.4.5-.3.9-.7 1.2-1.2.3-.5.4-1.1.4-1.7 0-1-.3-1.8-1-2.4-.5-.9-1.3-1.2-2.2-1.2zm14.7 2.7h.6c.4 0 .7-.1 1-.4.3-.2.5-.6.5-1s-.1-.7-.4-1c-.2-.3-.6-.4-1.1-.4-.6 0-1.2.2-1.8.7l-.6-.7c.8-.6 1.6-.9 2.4-.9.7 0 1.3.2 1.8.6.5.4.7 1 .7 1.6 0 .9-.4 1.5-1.2 1.8 1 .4 1.5 1.2 1.5 2.2 0 .7-.2 1.3-.7 1.8-.5.5-1.2.8-2.1.8-1.1 0-2.1-.4-2.8-1.1l.7-.8c.5.6 1.2.9 2 .9.5 0 1-.1 1.3-.4.3-.3.5-.7.5-1.2s-.2-.8-.5-1.1c-.3-.3-.7-.4-1.1-.4h-.7v-1zm12.9-3.6v6.2l6.2-6.2h.1v8.4h-1.1v-6.2l-6.1 6.2h-.1v-8.4h1zm21.2 4.4H345v4h-1.1v-8.4h1.1v3.3h4.9v-3.3h1.1v8.4h-1.1v-4h-.1zm-225.8 0h-4.9v4H118v-8.4h1.1v3.3h4.9v-3.3h1.1v8.4H124v-4zm9.1-4.4h5.5v.9h-2.2v7.5h-1.1v-7.5h-2.2v-.9zm20.6 5.6l.9.5c-.3.6-.6 1.1-1 1.4-.4.4-.8.6-1.3.8-.5.2-1 .3-1.7.3-1.4 0-2.4-.4-3.2-1.3-.8-.9-1.2-1.9-1.2-3s.3-2 1-2.9c.8-1.1 1.9-1.6 3.3-1.6s2.6.5 3.4 1.6c.6.8.9 1.7.9 2.9h-7.6c0 1 .3 1.8.9 2.4.6.6 1.3.9 2.2.9.4 0 .8-.1 1.2-.2.4-.1.7-.3 1-.6.6-.2.9-.6 1.2-1.2zm0-2.2c-.1-.6-.4-1-.6-1.4-.3-.3-.6-.6-1.1-.8-.5-.2-.9-.3-1.4-.3-.8 0-1.5.3-2.1.8-.4.4-.8 1-1 1.7h6.2zm9.8-3.4h1.1v1.5c.4-.6.9-1 1.5-1.3.6-.3 1.2-.4 1.9-.4 1.2 0 2.2.4 3.1 1.3.8.9 1.3 1.9 1.3 3.1 0 1.2-.4 2.3-1.3 3.1-.8.9-1.9 1.3-3 1.3-.7 0-1.3-.1-1.8-.4-.6-.3-1.1-.7-1.5-1.2v4.5h-1.1V70.2h-.2zm4.3.9c-.9 0-1.7.3-2.4 1-.6.7-1 1.5-1 2.4 0 .6.1 1.2.4 1.7.3.5.7.9 1.2 1.2.5.3 1.1.4 1.7.4.6 0 1.1-.1 1.6-.5.5-.3.9-.7 1.2-1.3.3-.5.5-1.1.5-1.7 0-.6-.2-1.2-.5-1.7s-.7-1-1.2-1.3c-.3-.1-.9-.2-1.5-.2zm19 3.5h-4.9v4h-1.1v-8.4h1.1v3.3h4.9v-3.3h1.1v8.4h-1.1v-4zm17.2 1.2l.9.5c-.3.6-.6 1.1-1 1.4-.4.4-.8.6-1.3.8-.5.2-1 .3-1.7.3-1.4 0-2.4-.4-3.2-1.3-.8-.9-1.2-1.9-1.2-3s.3-2 1-2.9c.8-1.1 1.9-1.6 3.3-1.6s2.6.5 3.4 1.6c.6.8.9 1.7.9 2.9h-7.6c0 1 .3 1.8.9 2.4.6.6 1.3.9 2.2.9.4 0 .8-.1 1.2-.2.4-.1.7-.3 1-.6.5-.2.8-.6 1.2-1.2zm0-2.2c-.1-.6-.4-1-.6-1.4-.3-.3-.6-.6-1.1-.8-.5-.2-.9-.3-1.4-.3-.8 0-1.5.3-2.1.8-.4.4-.8 1-1 1.7h6.2zm8.8-3.4h5.5v.9h-2.2v7.5H215v-7.5h-2.2v-.9z" class="st1"/>
    <path d="M101.7 35.9h13c.9 0 1.7.2 2.4.5.8.3 1.4.8 2 1.4.6.6 1 1.2 1.4 2 .3.8.5 1.6.5 2.4 0 1.6-.5 3-1.6 4.2.5.5.9 1.2 1.2 1.9.3.7.4 1.5.4 2.3 0 .9-.2 1.7-.5 2.4-.3.8-.8 1.4-1.4 2-.6.6-1.2 1-2 1.4-.8.3-1.6.5-2.4.5h-13v-21zm211.9 21l5.6-7.5 5.6 7.5h5.2l-8.2-11 7.5-10h-5.2l-4.9 6.5-4.9-6.5h-5.2l7.4 10-8.2 11h5.3zm-24.9-10.5c0-1.4.3-2.8.8-4.1.5-1.3 1.3-2.4 2.2-3.3.9-.9 2.1-1.7 3.3-2.2 1.3-.5 2.6-.8 4.1-.8 1.4 0 2.8.3 4.1.8 1.3.5 2.4 1.3 3.4 2.2 1 .9 1.7 2.1 2.3 3.3.5 1.3.8 2.6.8 4.1 0 1.5-.3 2.8-.8 4.1-.5 1.3-1.3 2.4-2.3 3.3-1 1-2.1 1.7-3.4 2.3-1.3.5-2.6.8-4.1.8-1.5 0-2.8-.3-4.1-.8-1.3-.5-2.4-1.3-3.3-2.3-.9-1-1.7-2.1-2.2-3.3-.5-1.2-.8-2.6-.8-4.1zm4.1 0c0 .9.2 1.7.5 2.5s.8 1.4 1.4 2c.6.6 1.2 1 2 1.4.8.3 1.6.5 2.5.5.9 0 1.7-.2 2.5-.5s1.5-.8 2-1.4c.6-.6 1-1.2 1.4-2 .3-.8.5-1.6.5-2.5 0-.9-.2-1.7-.5-2.5s-.8-1.4-1.4-2c-.6-.6-1.3-1-2-1.4-.8-.3-1.6-.5-2.5-.5-.9 0-1.7.2-2.5.5s-1.4.8-2 1.4c-.6.6-1 1.2-1.4 2-.3.9-.5 1.7-.5 2.5zM270.4 61h-4.1V46.1c0-1.3.3-2.6.8-3.8.5-1.3 1.3-2.4 2.2-3.3.9-.9 2.1-1.7 3.3-2.2 1.3-.5 2.6-.8 4.1-.8 1.4 0 2.8.3 4.1.8 1.3.5 2.4 1.3 3.4 2.2 1 .9 1.7 2.1 2.3 3.3.5 1.3.8 2.6.8 4.1 0 1.5-.3 2.8-.8 4.1-.5 1.3-1.3 2.4-2.3 3.3-1 1-2.1 1.7-3.4 2.3-1.3.5-2.6.8-4.1.8-1.5 0-2.8-.3-4.1-.8-.8-.3-1.5-.8-2.2-1.3V61zm0-14.9v1.1c.1.6.2 1.2.4 1.7.3.8.8 1.4 1.4 2 .6.6 1.2 1 2 1.4.8.3 1.6.5 2.5.5.9 0 1.7-.2 2.5-.5s1.5-.8 2-1.4c.6-.6 1-1.2 1.4-2 .3-.8.5-1.6.5-2.5 0-.9-.2-1.7-.5-2.5s-.8-1.4-1.4-2c-.6-.6-1.3-1-2-1.4-.8-.3-1.6-.5-2.5-.5-.9 0-1.7.2-2.5.5s-1.4.8-2 1.4c-.6.6-1 1.2-1.4 2-.2.8-.4 1.5-.4 2.2zm-16.5 2.4h-4.2v8.4h-4.1v-21h4.1v8.4h4.2c.8 0 1.5-.2 2.2-.5.8-.3 1.4-.8 2-1.4.6-.6 1-1.2 1.4-2 .3-.8.5-1.6.5-2.5v-2.1h4.2V38c0 1.8-.4 3.4-1.1 4.8-.8 1.4-1.8 2.6-3.1 3.6 1.3 1 2.3 2.2 3.1 3.6.8 1.5 1.1 3 1.1 4.8v2.1H260v-2.1c0-.9-.2-1.7-.5-2.5s-.8-1.4-1.4-2c-.6-.6-1.2-1-2-1.4-.7-.2-1.4-.4-2.2-.4zM207 40.1h-8.1v9.4c0 4.1-3.4 7.4-7.5 7.4v-4.2c1.8 0 3.3-1.5 3.3-3.3h.1V35.9h16.3v20.9H207V40.1zm17.1 10.8l-3.8 5.9h-4.8l3.9-6.1c-3.5-.7-6.1-3.7-6.1-7.4 0-4 3.1-7.2 7-7.5h11.9v20.9h-4.1v-5.9h-4v.1zm-3.3-4.2h7.3V40h-7.3c-1.8 0-3.3 1.5-3.3 3.3-.1 2 1.4 3.4 3.3 3.4zm-51.7-.3c0-1.4.3-2.8.8-4.1.5-1.3 1.3-2.4 2.2-3.3.9-.9 2.1-1.7 3.3-2.2 1.3-.5 2.6-.8 4.1-.8 1.4 0 2.8.3 4.1.8 1.3.5 2.4 1.3 3.4 2.2 1 .9 1.7 2.1 2.3 3.3.5 1.3.8 2.6.8 4.1v8.3c0 1.5-.3 2.8-.8 4.1-.5 1.3-1.3 2.4-2.2 3.3-.9 1-2.1 1.7-3.3 2.3-1.3.5-2.6.8-4.1.8h-2.1V61h2.1c1.4 0 2.6-.4 3.7-1.2 1.1-.8 1.8-1.8 2.3-3.1.2-.6.3-1.3.4-2.1-.7.5-1.5 1-2.3 1.3-1.3.5-2.6.8-4.1.8-1.5 0-2.8-.3-4.1-.8-1.3-.5-2.4-1.3-3.3-2.3-.9-1-1.7-2.1-2.2-3.3-.7-1-1-2.4-1-3.9zm4.2 0c0 .9.2 1.7.5 2.5s.8 1.4 1.4 2c.6.6 1.2 1 2 1.4.8.3 1.6.5 2.5.5.9 0 1.7-.2 2.5-.5s1.5-.8 2-1.4c.6-.6 1-1.2 1.4-2 .3-.8.5-1.6.5-2.5 0-.9-.2-1.7-.5-2.5s-.8-1.4-1.4-2c-.6-.6-1.3-1-2-1.4-.8-.3-1.6-.5-2.5-.5-.9 0-1.7.2-2.5.5s-1.4.8-2 1.4c-.6.6-1 1.2-1.4 2-.4.9-.5 1.7-.5 2.5zm-13.8 3l2.9 2.9-1.4 1.4c-1 1-2.1 1.8-3.4 2.3-1.3.5-2.6.8-4 .8s-2.7-.3-4-.8c-1.3-.5-2.4-1.3-3.4-2.3-1-1-1.8-2.2-2.3-3.5-.5-1.3-.8-2.6-.8-3.9 0-1.3.3-2.6.8-3.9.5-1.3 1.3-2.4 2.3-3.5 1-1 2.2-1.8 3.5-2.3 1.3-.5 2.6-.8 3.9-.8 1.3 0 2.7.3 3.9.8 1.3.5 2.4 1.3 3.5 2.3l1.4 1.4-11.6 11.6c1.2.6 2.4.8 3.8.6 1.3-.2 2.5-.8 3.5-1.8l1.4-1.3zm-10.4-7.5c-1.2 1.2-1.9 2.7-1.9 4.5 0 .9.2 1.8.7 2.8l8.4-8.4c-1.2-.6-2.4-.8-3.8-.6-1.3.1-2.4.7-3.4 1.7zm191.6 15c-1.5 0-2.8-.3-4.1-.8-1.3-.5-2.4-1.3-3.3-2.2-1-.9-1.7-2.1-2.3-3.3-.5-1.3-.8-2.6-.8-4.1V35.9h4.2v10.5c0 .9.2 1.7.5 2.4.3.8.8 1.4 1.4 2 .6.6 1.2 1 2 1.4.8.3 1.6.5 2.5.5.9 0 1.7-.2 2.4-.5.8-.3 1.4-.8 2-1.4.6-.6 1-1.2 1.4-2 .3-.8.5-1.6.5-2.4V35.9h4.2v20.9H347v-2.1c-.9.7-1.8 1.2-2.9 1.6-1.1.4-2.2.6-3.4.6zM125.9 39c1-1 2.2-1.8 3.5-2.3 1.3-.5 2.6-.8 3.9-.8s2.7.3 3.9.8c1.3.5 2.4 1.3 3.5 2.3l1.4 1.4-2.9 2.9-1.5-1.4c-.6-.6-1.3-1.1-2.1-1.4-.8-.3-1.6-.5-2.4-.5-.8 0-1.6.2-2.4.5-.8.3-1.5.8-2.1 1.4-.6.6-1.1 1.3-1.4 2.1-.3.8-.5 1.6-.5 2.4 0 .8.2 1.6.5 2.4.3.8.8 1.5 1.4 2.1 1.2 1.2 2.7 1.9 4.5 1.9.8 0 1.6-.2 2.4-.5.8-.3 1.5-.8 2.1-1.4l1.5-1.4 2.9 2.9-1.4 1.4c-1 1-2.2 1.8-3.5 2.3-1.3.5-2.6.8-3.9.8s-2.7-.3-3.9-.8c-1.3-.5-2.4-1.3-3.5-2.3-1-1-1.8-2.2-2.3-3.5-.5-1.3-.7-2.6-.7-3.9 0-1.4.2-2.7.7-3.9.5-1.3 1.3-2.5 2.3-3.5zm-11.2 5.3h.2c.6-.1 1.1-.3 1.4-.7.4-.4.5-.9.5-1.4 0-.6-.2-1.1-.6-1.5-.4-.4-.9-.6-1.5-.6h-8.9v4.2h8.9zm0 8.4c.6 0 1.1-.2 1.5-.6.4-.4.6-.9.6-1.5s-.2-1.1-.6-1.5c-.4-.4-.9-.6-1.5-.6h-8.9v4.2h8.9z" class="st2"/>
    <path d="M24.7 44.5h-3.3l1.7-1.7 1.6 1.7zm-17.4 0H2.7L5 42.2l2.3 2.3zM3.9 32.1c.7-2 1.6-4 2.6-5.8l2.3 2.3-4.2 4.2-.7-.7zm6.2-11.2c1.3-1.6 2.6-3 4.1-4.4l3.3 3.3-4.2 4.2-3.2-3.1zm9.3-8.3c1.8-1.1 3.7-2.1 5.6-2.9l1.3 1.3-4.3 4.3-2.6-2.7zM38.2 9v4.7l-2.4-2.4L38.2 9zm0 18.7v3.6l-1.8-1.8 1.8-1.8zm-6.9-11.8L27 20.2l4.4 4.4 4.3-4.3-4.4-4.4zm.6 18.1l-4.3 4.3 4.4 4.4 4.3-4.3-4.4-4.4zm-9.4-9.3L18.2 29l4.4 4.4 4.3-4.3-4.4-4.4zm-8.8 8.8l-4.2 4.2 4.4 4.4 4.2-4.2-4.4-4.4z" class="st3"/>
    <path d="M33.8 44.5h-3.5l1.8-1.8 1.7 1.8zm-17.5 0h-4.8l2.4-2.4 2.4 2.4zM2.2 39.4c.2-1.8.6-3.6 1.1-5.4l1.3-1.3 4.9 4.9L5 42.2l-2.8-2.8zM29.1 8.3C30 8 31 7.7 32 7.5l3.8 3.8-4.5 4.5-4.9-4.8 2.7-2.7zm9.1 9.6v4.9l-2.5-2.5 2.5-2.4zm0 18.7v3.8l-1.9-1.9 1.9-1.9zm-15.5-3.2l-4.5 4.5 4.9 4.9 4.5-4.5-4.9-4.9zm8.7-8.8l-4.5 4.5 4.9 4.9 4.5-4.5-4.9-4.9zM13.3 24l-4.5 4.5 4.9 4.9 4.5-4.5-4.9-4.9zm8.8-8.8l-4.5 4.5 4.9 4.9 4.5-4.5-4.9-4.9z" class="st3"/>
    <path d="M38.2 44.5h-4.4L32 42.7l4.3-4.3 1.9 1.9v4.2zm-16.8 0h-5.1l-2.4-2.4 4.2-4.2 4.9 4.9-1.6 1.7zm-18.7 0h-.9c0-1.7.1-3.4.3-5.1L5 42.2l-2.3 2.3zM32 7.5c2-.4 4.1-.7 6.2-.7V9l-2.4 2.4L32 7.5zm6.2 15.3v4.9l-1.8 1.8-4.9-4.9 4.3-4.3 2.4 2.5zM26.4 11l-4.3 4.3 4.9 4.9 4.3-4.3-4.9-4.9zm-8.8 8.8L13.3 24l4.9 4.9 4.3-4.3-4.9-4.8zm9.3 9.3l-4.3 4.3 4.9 4.9 4.3-4.3-4.9-4.9zm-18.1-.6l-4.2 4.2 4.9 4.9 4.2-4.2-4.9-4.9z" class="st0"/>
    <path d="M79.5 45.7c0 10.9-4.4 20.7-11.5 27.9-7.1 7.1-17 11.5-27.9 11.5s-20.7-4.4-27.9-11.5C5.1 66.5.7 56.6.7 45.7v-1.2h1.2v1.2c0 21.1 17.1 38.2 38.2 38.2s38.2-17.1 38.2-38.2v-1.2h1.2v1.2zM.6 44c.1-10.3 4.2-19.7 10.9-26.6 6.8-7 16.2-11.5 26.6-11.9h1.3v1.3h-1.2C18.1 7.5 2.1 23.9 1.8 44H.6z" class="st1"/>
    <path d="M78.3 46.3c0 2.5-.3 5-.8 7.4l-4.2-4.2 3.8-3.8h.6l.6.6zM45.6 83.5c-1.8.3-3.7.4-5.6.4h-1.2l3.6-3.6 3.2 3.2zm-19.8-2.4c-.7-.3-1.4-.6-2-.9l.6-.6 1.4 1.5zm-8.2-4.5c-1.7-1.2-3.3-2.6-4.8-4.1l2.2-2.2 4.4 4.4-1.8 1.9zm-9.2-9.5c-1.2-1.8-2.3-3.7-3.2-5.7l.5-.4 4.4 4.4-1.7 1.7zM2 48.2c0-.7-.1-1.5-.1-2.2l.3-.3h5.6l1.6 1.6-4.2 4.2L2 48.2zm18.9-2.5h4.5l2.2 2.2-4.3 4.3-4.4-4.4 2-2.1zm18.7 0H43l2.8 2.8-4.3 4.3-4.4-4.4 2.5-2.7zm18.8 0h2.1l3.4 3.4-4.2 4.2-4.4-4.4 3.1-3.2zM68.8 54l-4.2 4.2 4.4 4.4 4.2-4.2-4.4-4.4zM60 62.7L55.8 67l4.4 4.4 4.3-4.3-4.5-4.4zm-9.3-9.3l-4.3 4.3 4.4 4.4 4.3-4.3-4.4-4.4zm.5 18.1L47 75.8l4.4 4.4 4.3-4.3-4.5-4.4zm-9.3-9.3l-4.3 4.3 4.4 4.4 4.3-4.3-4.4-4.4zm-9.4-9.4l-4.3 4.3 4.4 4.4 4.3-4.3-4.4-4.4zm.6 18.2l-4.2 4.2 4.4 4.4 4.2-4.2-4.4-4.4zm-9.4-9.4l-4.2 4.2 4.4 4.4 4.2-4.2-4.4-4.4zm-9.3-9.4l-4.2 4.2 4.4 4.4 4.2-4.2-4.4-4.4z" class="st3"/>
    <path d="M77.3 54.3c-.5 2.1-1.2 4.2-2 6.2l-2.1-2.1 4.1-4.1zm-4.9 11.8c-1.2 1.8-2.5 3.5-3.9 5.1l-4-4 4.5-4.5 3.4 3.4zm-8.3 9.3c-1.7 1.4-3.5 2.6-5.4 3.7l-3-3.1 4.5-4.5 3.9 3.9zm-11.2 6.3c-1.3.5-2.7.9-4.1 1.2l2.7-2.7 1.4 1.5zm-15.4 2.1c-2.5-.2-4.9-.6-7.2-1.2l3-3 4.2 4.2zM4.6 59.9C3.9 58 3.2 56 2.8 54l2.5-2.5 4.9 4.9L5.7 61l-1.1-1.1zm6.5-14.2h5.8l2 2-4.5 4.5-4.9-4.9 1.6-1.6zm18.7 0h4.7l2.6 2.6-4.5 4.5-4.9-4.9 2.1-2.2zm18.7 0H52l3.2 3.2-4.5 4.5-4.9-4.9 2.7-2.8zm18.7 0h2.3l3.8 3.8-4.5 4.5-4.9-4.9 3.3-3.4zM42.1 70.9l-4.5 4.5 4.9 4.9 4.5-4.5-4.9-4.9zm8.7-8.8l-4.5 4.5 4.9 4.9 4.5-4.5-4.9-4.9zm8.8-8.8l-4.5 4.5 4.9 4.9 4.5-4.5-4.9-4.9zM24 70.2l-4.5 4.5 4.9 4.9 4.5-4.5-4.9-4.9zm8.7-8.7L28.2 66l4.9 4.9 4.5-4.5-4.9-4.9zm8.8-8.8L37 57.2l4.9 4.9 4.5-4.5-4.9-4.9zm-26.9 8.2l-4.5 4.5 4.9 4.9 4.5-4.5-4.9-4.9zm8.7-8.8l-4.5 4.5 4.9 4.9 4.5-4.5-4.9-4.9z" class="st3"/>
    <path d="M75.3 60.5c-.8 1.9-1.8 3.8-2.9 5.5L69 62.7l4.2-4.2 2.1 2zm-6.8 10.7c-1.3 1.5-2.8 2.9-4.4 4.2l-3.9-3.9 4.3-4.3 4 4zM58.7 79c-1.9 1-3.8 1.9-5.9 2.7l-1.5-1.5 4.3-4.3 3.1 3.1zm-19.8 4.9c-.5 0-.9 0-1.4-.1l-4.2-4.2 4.2-4.2 4.9 4.9-3.5 3.6zm-15.1-3.6c-2.2-1-4.3-2.3-6.2-3.7l1.8-1.8 4.9 4.9-.5.6zm-10.9-7.8c-1.6-1.7-3.1-3.5-4.4-5.4l1.7-1.7 4.9 4.9-2.2 2.2zM5.2 61.4c-.2-.5-.4-1-.6-1.4l1 1-.4.4zM1.9 46v-.3h.3l-.3.3zm15-.3h4l-2 2-2-2zm17.6 0h5.2l-2.6 2.6-2.6-2.6zm17.5 0h6.3l-3.2 3.2-3.1-3.2zm17.5 0h7.6l-3.8 3.8-3.8-3.8zm-5.7 3.4l-4.2 4.2 4.9 4.9 4.2-4.2-4.9-4.9zm-18.1-.6l-4.3 4.3 4.9 4.9 4.3-4.3-4.9-4.9zm9.4 9.3l-4.3 4.3 4.9 4.9 4.3-4.3-4.9-4.9zm-27.5-9.9l-4.3 4.3 4.9 4.9 4.3-4.3-4.9-4.9zm9.4 9.3l-4.3 4.3 4.9 4.9 4.3-4.3-4.9-4.9zm9.3 9.4L42 70.9l4.9 4.9 4.3-4.3-4.9-4.9zM9.5 47.3l-4.2 4.2 4.9 4.9 4.2-4.2-4.9-4.9zm9.3 9.4l-4.2 4.2 4.9 4.9 4.2-4.2-4.9-4.9zm9.4 9.3L24 70.2l4.9 4.9 4.2-4.2-4.9-4.9z" class="st0"/>
    <path d="M73.8 57.7c-1.7 0-3.2-.8-4.1-2.1.3.1.7.1 1.1.1 4.5 0 5.7-4.4 5.9-8.5.2-4.6.2-7.6 2.7-10.9 2.2-2.9 5.5-4.9 9.4-5.4h.2c2-.2 3.8 1.2 4 3.2.3 2-1.2 3.9-3.2 4.2-2 .3-3.9-1.2-4.2-3.2-.2-1.2.3-2.3 1.1-3.1-1.3.7-2.1 2.1-2 3.6-4.3 2.7-5.2 6.3-5.2 11.2-.1 3.6-.5 10.9-5.7 10.9zm-5-2.5c-.9 1.5-2.4 2.5-4.3 2.5-1.7 0-3.2-.9-4.1-2.1.4.1.7.1 1.1.1 2.1 0 3.9-1.4 4.6-3.2.5 1.2 1.5 2.2 2.7 2.7zm-9.3 0c-.9 1.5-2.4 2.5-4.3 2.5-1.7 0-3.2-.9-4.1-2.2.4.1.8.1 1.2.1 2.1 0 3.9-1.4 4.6-3.2.5 1.2 1.4 2.2 2.6 2.8zm-9.3 0c-.9 1.5-2.4 2.5-4.3 2.5-1.7 0-3.2-.9-4.1-2.2.4.1.8.2 1.2.2 2.1 0 3.9-1.4 4.6-3.2.6 1.1 1.5 2.1 2.6 2.7zm-9.2 0c-.8 1.5-2.5 2.5-4.3 2.5-1.7 0-3.2-.9-4.1-2.2.4.1.8.2 1.3.2 2.1 0 3.9-1.4 4.6-3.2.4 1.1 1.3 2.1 2.5 2.7zm-9.3-.1c-.8 1.5-2.5 2.5-4.3 2.5-1.7 0-3.2-.9-4.1-2.2.4.1.9.2 1.3.2 2.1 0 3.9-1.4 4.6-3.2.5 1.2 1.4 2.2 2.5 2.7zm-9.3 0c-.8 1.5-2.5 2.5-4.3 2.5-1.7 0-3.2-.9-4.1-2.2.4.1.9.2 1.4.2 2.1 0 3.9-1.4 4.6-3.2.4 1.2 1.3 2.2 2.4 2.7zm-9.3 0c-.8 1.5-2.5 2.6-4.3 2.6-1.7 0-3.3-1-4.3-2.3.5.2 1 .3 1.6.3 2.1 0 3.9-1.4 4.6-3.2.5 1.1 1.3 2 2.4 2.6zm26-10.3H28.3c-.5-.8-.8-1.7-.8-2.8 0-2.1 1.4-3.9 3.3-4.6-1.9-.7-3.3-2.5-3.3-4.6 0-2.1 1.4-3.9 3.3-4.6-1.9-.7-3.3-2.5-3.3-4.6 0-2.1 1.4-3.9 3.3-4.6-1.9-.7-3.3-2.5-3.3-4.6 0-2.3 1.8-4.5 4-5h.1c2.4-.5 4.9-.7 7.5-.7v36.1z" class="st0"/>
    <path d="M76.7 44.1c.3 4.4-.1 11.6-5.9 11.6-2.1 0-3.9-1.4-4.6-3.2-.7 1.9-2.5 3.2-4.6 3.2-2.1 0-3.9-1.4-4.6-3.2-.7 1.9-2.5 3.2-4.6 3.2-2.1 0-3.9-1.4-4.6-3.2-.7 1.9-2.5 3.2-4.6 3.2-2.1 0-3.9-1.4-4.6-3.2-.7 1.9-2.5 3.2-4.6 3.2-2.1 0-3.9-1.4-4.6-3.2-.7 1.9-2.5 3.2-4.6 3.2-2.1 0-3.9-1.4-4.6-3.2-.7 1.9-2.5 3.2-4.6 3.2-2.1 0-3.9-1.4-4.6-3.2-.7 1.9-2.5 3.2-4.6 3.2-2.3 0-4.5-1.8-5-4v-.1c-.5-2.4-.7-4.9-.7-7.5h76z" class="st4"/>
    <path d="M31.3 45.1c-1.7-.8-2.9-2.6-2.9-4.7 0-2.2 1.4-4.2 3.4-4.9-2-.7-3.4-2.6-3.4-4.9 0-2.3 1.4-4.2 3.4-4.9-2-.7-3.4-2.6-3.4-4.9 0-2.3 1.4-4.2 3.4-4.9-2-.7-3.4-2.6-3.4-4.9 0-2.5 1.9-4.8 4.2-5.3h.1c2.6-.4 5.3-.7 8-.7v40.1h-9.4z" class="st4"/>
    <path d="M14.5 81.7c6.9-1.8 13.9 2.2 15.8 9.1 1.8 6.9-2.2 13.9-9.1 15.8s-13.9-2.2-15.8-9.1c-1.9-6.9 2.2-13.9 9.1-15.8zm44.5 0c6.9-1.8 13.9 2.2 15.8 9.1 1.8 6.9-2.2 13.9-9.1 15.8-6.9 1.8-13.9-2.2-15.8-9.1-1.8-6.9 2.2-13.9 9.1-15.8zm3.3 11c.8 0 1.5.7 1.5 1.5s-.7 1.5-1.5 1.5-1.5-.7-1.5-1.5c0-.9.7-1.5 1.5-1.5zm0-2.6c.8 0 1.5.2 2.2.6l3.1-3.1c-1.8-1.4-4.1-2.1-6.5-1.7l1.1 4.2h.1zm3.5 1.9c.4.6.6 1.4.6 2.2v.1l4.2 1.1c.2-1.1.1-2.3-.2-3.4-.3-1.2-.8-2.2-1.5-3.1L65.8 92zm.1 4.1c-.4.7-1 1.3-1.7 1.7l1.1 4.2c2.2-.9 3.9-2.6 4.8-4.8l-4.2-1.1zm-3.4 2.1h-.1c-.8 0-1.5-.2-2.2-.6l-3.1 3.1c1.8 1.4 4.1 2.1 6.5 1.7l-1.1-4.2zm-3.6-1.9c-.4-.6-.6-1.4-.6-2.2v-.2l-4.2-1.1c-.2 1.1-.1 2.3.2 3.4.3 1.2.8 2.2 1.6 3.1l3-3zm-.2-4.1c.4-.7 1-1.3 1.7-1.7l-1.1-4.2c-2.2.9-3.9 2.6-4.8 4.8l4.2 1.1zm-40.9.5c.8 0 1.5.7 1.5 1.5s-.7 1.5-1.5 1.5-1.5-.7-1.5-1.5c0-.9.7-1.5 1.5-1.5zm0-2.6c.8 0 1.5.2 2.2.6l3.1-3.1c-1.8-1.4-4.1-2.1-6.5-1.7l1.1 4.2h.1zm3.4 1.9c.4.6.6 1.4.6 2.2v.1l4.2 1.1c.2-1.1.1-2.3-.2-3.4-.3-1.2-.8-2.2-1.6-3.1l-3 3.1zm.2 4.1c-.4.7-1 1.3-1.7 1.7l1.1 4.2c2.2-.9 3.9-2.6 4.8-4.8l-4.2-1.1zm-3.5 2.1h-.1c-.8 0-1.5-.2-2.2-.6l-3.1 3.1c1.8 1.4 4.1 2.1 6.5 1.7l-1.1-4.2zm-3.6-1.9c-.4-.6-.6-1.4-.6-2.2v-.2l-4.2-1.1c-.2 1.1-.1 2.3.2 3.4.3 1.2.8 2.2 1.6 3.1l3-3zm-.1-4.1c.4-.7 1-1.3 1.7-1.7l-1.1-4.2c-2.2.9-3.9 2.6-4.8 4.8l4.2 1.1z" class="st5"/>
    <path d="M40.1 108c20.7 0 37.5.5 37.5 1 0 .6-16.8 1-37.5 1s-37.5-.5-37.5-1c-.1-.5 16.7-1 37.5-1z" class="st6"/>
    <path d="M75.4 27.3s1.5-5.5 1.1-8c-.3-2.3-.7-4.3-2.3-6.1-2-2.2-5.4-4-8.1-5.1-5.5-2.3-12.9-3.4-19.9-.7C42 9 38.8 15.8 38.5 18c-1.3-2.8-5.1-2-6.2 1.3-2.4 7.7 4.3 5.3 4.3 5.3-.4 10 16 13.4 24.8 13.7 4.7.2 10.6-1.2 12.6-4.8 0 0 4.6 4.3 6.4-1.7 1.7-6-4.2-5.2-5-4.5zm-2.5 17.9c.3.8 2.9 3.4 1.1 4.8-1.3 1.1-2.2-.7-2.8-1.7 0 1.6.9 4.7-1.1 5-1.8.3-1.8-3.2-2.2-4.5-.4 1.6-.8 5.3-2.4 5.2-2.4-.2-1.3-4.1-1.2-5.5-1.1 2.2-2.9 3.8-4.1 2.5-1-1.2 1.7-5.2 1.5-5.8-.2-.7-3.7 1.4-4.1-1-.3-1.8 2.6-1.8 3.8-2.7 7.1-4.8 11.8-.8 11.5 3.7zm-34.7-1.1c-.4.8-3.5 3-1.9 4.7 1.2 1.3 2.3-.3 3.1-1.3-.2 1.6-1.6 4.6.3 5.2 1.8.5 2.3-3 2.8-4.2.1 1.6 0 5.5 1.6 5.6 2.5.2 1.9-4 2-5.4.8 2.3 2.4 4.3 3.8 3.1 1.2-1-.9-5.5-.6-6 .3-.7 3.5 2 4.3-.4.6-1.7-2.3-2.2-3.4-3.3-6.3-6-11.7-2.7-12 2z" class="st7"/>
    <path d="M49.9 16c2.6.2 4.5 2.5 4.2 5.1-.2 2.6-2.5 4.5-5.1 4.2-2.6-.2-4.5-2.5-4.2-5.1.2-2.6 2.5-4.5 5.1-4.2zm12.7 16c-.5.6-1.1 1.1-1.7 1.5-1.9 1.2-4.2 1.8-6.6 1.3-2.4-.5-4.3-1.9-5.6-3.7-.4-.6-.8-1.3-1-2l1.3-.4c.2.6.5 1.2.8 1.7 1 1.6 2.7 2.7 4.7 3.1 2 .4 4 0 5.5-1.1.5-.4 1-.8 1.4-1.3l1.2.9zm2.6-12.8c2.6.2 4.5 2.5 4.2 5.1-.2 2.6-2.5 4.5-5.1 4.2-2.6-.2-4.5-2.5-4.2-5.1s2.5-4.5 5.1-4.2z" class="st4"/>
    <path d="M49.7 18c1.6.1 2.8 1.6 2.6 3.2-.1 1.6-1.6 2.8-3.2 2.6-1.6-.1-2.8-1.6-2.6-3.2.1-.6.3-1.1.7-1.6 0 .1-.1.2-.1.3-.1.8.5 1.5 1.3 1.6.8.1 1.5-.5 1.6-1.3.1-.8-.5-1.5-1.2-1.6.2 0 .5-.1.9 0zm15.2 3.1c1.6.1 2.8 1.6 2.6 3.2-.1 1.6-1.6 2.8-3.2 2.6-1.6-.1-2.8-1.6-2.6-3.2.1-.6.3-1.1.7-1.6 0 .1-.1.2-.1.3-.1.8.5 1.5 1.3 1.6.8.1 1.5-.5 1.6-1.3.1-.8-.5-1.5-1.2-1.6h.9z" class="st0"/>
    <path d="M74.9 10.5c1.8.9 3.9 2 5.3 3.1 2.5 2.1 1.7 3-.5 4.3-2.4 1.4-7.1 3.8-7.4 1.1-.3-2.2.1-4.5.7-6.8-2.7-.6-5.3-1.4-7.8-2.5-1.9-.8-2-2.3-.4-4 1.8-1.8 3.4-3.3 5.6-4.7C72.2-.1 73.5.6 74 2.3c.7 2.5 1 5.2.9 8.2z" class="st5"/>
  </g>
</svg>
